<svg width="24" height="24" viewBox="0 0 24 24" fill="none" xmlns="http://www.w3.org/2000/svg">
<path d="M12.0001 10.5268H21.7099C21.817 11.125 21.8706 11.6964 21.8706 12.2411C21.8706 14.1786 21.4644 15.9085 20.6519 17.4308C19.8394 18.9531 18.6809 20.1429 17.1764 21C15.6719 21.8571 13.9465 22.2857 12.0001 22.2857C10.5983 22.2857 9.26346 22.0156 7.99561 21.4755C6.72775 20.9353 5.634 20.2054 4.71436 19.2857C3.79471 18.3661 3.0648 17.2723 2.52462 16.0045C1.98444 14.7366 1.71436 13.4018 1.71436 12C1.71436 10.5982 1.98444 9.2634 2.52462 7.99554C3.0648 6.72769 3.79471 5.63394 4.71436 4.71429C5.634 3.79465 6.72775 3.06474 7.99561 2.52456C9.26346 1.98438 10.5983 1.71429 12.0001 1.71429C14.6786 1.71429 16.9777 2.61162 18.8974 4.40626L16.0983 7.09822C15.0001 6.03572 13.634 5.50447 12.0001 5.50447C10.8483 5.50447 9.78355 5.79465 8.80587 6.37501C7.82819 6.95537 7.05364 7.74331 6.48221 8.73885C5.91078 9.73438 5.62507 10.8214 5.62507 12C5.62507 13.1786 5.91078 14.2656 6.48221 15.2612C7.05364 16.2567 7.82819 17.0447 8.80587 17.625C9.78355 18.2054 10.8483 18.4955 12.0001 18.4955C12.7769 18.4955 13.4911 18.3884 14.1429 18.1741C14.7947 17.9598 15.3304 17.692 15.7501 17.3705C16.1697 17.0491 16.5358 16.683 16.8483 16.2723C17.1608 15.8616 17.3907 15.4732 17.538 15.1072C17.6853 14.7411 17.7858 14.3929 17.8394 14.0625H12.0001V10.5268Z" fill="#F5F5F5"/>
</svg>
