<svg width="24" height="24" viewBox="0 0 24 24" fill="none" xmlns="http://www.w3.org/2000/svg">
<path d="M19.1998 10.84V7.99999C17.8698 7.99999 16.8548 7.64499 16.1998 6.95499C15.5275 6.16751 15.1509 5.17026 15.1348 4.13499V3.92999L12.4498 3.86499C12.4498 3.86499 12.4498 3.97999 12.4498 4.13499V15.4C12.3577 15.9033 12.1134 16.3662 11.7499 16.7262C11.3864 17.0862 10.9211 17.3261 10.417 17.4133C9.91283 17.5006 9.39405 17.431 8.93068 17.2141C8.46731 16.9972 8.08165 16.6433 7.82576 16.2003C7.56988 15.7572 7.4561 15.2463 7.49977 14.7365C7.54345 14.2268 7.74248 13.7427 8.07001 13.3496C8.39753 12.9565 8.83776 12.6734 9.33129 12.5385C9.82481 12.4035 10.3479 12.4233 10.8298 12.595V9.84499C10.5488 9.79895 10.2646 9.77554 9.97981 9.77499C8.9553 9.77499 7.9538 10.0788 7.10195 10.648C6.25011 11.2172 5.58617 12.0262 5.19411 12.9727C4.80205 13.9192 4.69947 14.9607 4.89934 15.9656C5.09921 16.9704 5.59256 17.8934 6.31699 18.6178C7.04143 19.3422 7.96442 19.8356 8.96924 20.0355C9.97406 20.2353 11.0156 20.1327 11.9621 19.7407C12.9086 19.3486 13.7176 18.6847 14.2868 17.8328C14.856 16.981 15.1598 15.9795 15.1598 14.955C15.1593 14.7427 15.1459 14.5307 15.1198 14.32V9.74499C16.3407 10.5075 17.7612 10.8887 19.1998 10.84Z" fill="#F5F5F5"/>
</svg>
